<svg xmlns="http://www.w3.org/2000/svg" viewBox="0 0 500 680">
<!--
  Kangaroo silhouette — standing upright facing right.
  Built from ~20 clean bezier curves tracing the outer contour only.
  Single closed path, no overlaps, no fill-rule issues.

  Coordinate guide (500×680 canvas):
  - Head top ~y=30, snout tip x=380, y=180
  - Ears at x=180-240, y=20-80
  - Neck down to body at ~y=220
  - Body mass x=100-350, y=220-440
  - Hind legs down to y=620
  - Tail sweeps left from x=100,y=380 down to x=20,y=580
-->
<path
  fill="#C9A84C"
  d="
    M 220 30
    C 210 10  190 8   178 20
    C 168 30  170 50  180 60
    C 166 48  150 44  140 54
    C 130 64  132 82  144 90
    C 126 90  110 100 106 118
    C 100 140 112 164 130 172
    C 112 178  96 194  94 216
    C  90 240 104 264 122 272
    C 100 278  80 298  78 326
    C  76 356  96 382 120 390
    C  96 402  76 428  76 458
    C  76 492  96 520 122 534
    L 118 600
    C 118 614 128 624 142 624
    C 156 624 166 614 166 600
    L 164 550
    C 176 556 190 560 204 558
    L 202 600
    C 202 614 212 624 226 624
    C 240 624 250 614 250 600
    L 248 542
    C 272 526 288 496 284 464
    C 280 432 258 408 232 402
    C 256 388 272 360 268 330
    C 264 300 242 278 216 272
    C 238 258 250 230 242 204
    C 236 182 218 168 198 166
    C 220 154 230 128 222 104
    C 216  84 198  72 180  74
    C 188  62 188  42 198  32
    C 208  22 222  24 226  36
    Z
    M 220 30
    C 228  18 242  14 252  22
    C 262  30 262  50 252  60
    C 242  50 230  44 220  50
    C 212  42 212  32 220  30
    Z
    M 78 326
    C  56 320  34 330  24 350
    C  12 374  20 404  40 418
    C  32 432  24 450  26 468
    C  28 492  46 512  66 518
    L  64 590
    C  64 604  74 614  88 614
    C 102 614 112 604 112 590
    L 112 534
    C  94 518  80 494  80 468
    C  80 448  88 430 100 418
    C  80 404  68 380  70 354
    C  72 342  74 334  78 326
    Z
  "
/>
</svg>
